HIERARCHY
ROOT root
{
	OFFSET 0.000000 0.000000 0.000000
	CHANNELS 6 Xposition Yposition Zposition Zrotation Yrotation Xrotation
	JOINT lhip
	{
		OFFSET 0.058581 -0.082280 -0.017664
		CHANNELS 3 Zrotation Yrotation Xrotation
		JOINT lknee
		{
			OFFSET 0.043451 -0.386469 0.008037
			CHANNELS 3 Zrotation Yrotation Xrotation
			JOINT lankle
			{
				OFFSET -0.014790 -0.426874 -0.037428
				CHANNELS 3 Zrotation Yrotation Xrotation
				JOINT ltoe
				{
					OFFSET 0.041054 -0.060286 0.122042
					CHANNELS 3 Zrotation Yrotation Xrotation
					End Site
					{
						OFFSET 0.000000 0.000000 0.000000
					}
				}
			}
		}
	}
	JOINT rhip
	{
		OFFSET -0.060310 -0.090513 -0.013543
		CHANNELS 3 Zrotation Yrotation Xrotation
		JOINT rknee
		{
			OFFSET -0.043257 -0.383688 -0.004843
			CHANNELS 3 Zrotation Yrotation Xrotation
			JOINT rankle
			{
				OFFSET 0.019056 -0.420046 -0.034562
				CHANNELS 3 Zrotation Yrotation Xrotation
				JOINT rtoe
				{
					OFFSET -0.034840 -0.062106 0.130323
					CHANNELS 3 Zrotation Yrotation Xrotation
					End Site
					{
						OFFSET 0.000000 0.000000 0.000000
					}
				}
			}
		}
	}
	JOINT lowerback
	{
		OFFSET 0.004439 0.124404 -0.038385
		CHANNELS 3 Zrotation Yrotation Xrotation
		JOINT upperback
		{
			OFFSET 0.004488 0.137956 0.026820
			CHANNELS 3 Zrotation Yrotation Xrotation
			JOINT chest
			{
				OFFSET -0.002265 0.056032 0.002855
				CHANNELS 3 Zrotation Yrotation Xrotation
				JOINT lowerneck
				{
					OFFSET -0.013390 0.211636 -0.033468
					CHANNELS 3 Zrotation Yrotation Xrotation
					JOINT upperneck
					{
						OFFSET 0.010113 0.088937 0.050410
						CHANNELS 3 Zrotation Yrotation Xrotation
						End Site
						{
							OFFSET 0.000000 0.000000 0.000000
						}
					}
				}
				JOINT lclavicle
				{
					OFFSET 0.071702 0.114000 -0.018898
					CHANNELS 3 Zrotation Yrotation Xrotation
					JOINT lshoulder
					{
						OFFSET 0.122921 0.045205 -0.019046
						CHANNELS 3 Zrotation Yrotation Xrotation
						JOINT lelbow
						{
							OFFSET 0.255332 -0.015649 -0.022946
							CHANNELS 3 Zrotation Yrotation Xrotation
							JOINT lwrist
							{
								OFFSET 0.265709 0.012698 -0.007375
								CHANNELS 3 Zrotation Yrotation Xrotation
								End Site
								{
									OFFSET 0.000000 0.000000 0.000000
								}
							}
						}
					}
				}
				JOINT rclavicle
				{
					OFFSET -0.082954 0.112472 -0.023707
					CHANNELS 3 Zrotation Yrotation Xrotation
					JOINT rshoulder
					{
						OFFSET -0.113228 0.046853 -0.008472
						CHANNELS 3 Zrotation Yrotation Xrotation
						JOINT relbow
						{
							OFFSET -0.260127 -0.014369 -0.031269
							CHANNELS 3 Zrotation Yrotation Xrotation
							JOINT rwrist
							{
								OFFSET -0.269108 0.006794 -0.006027
								CHANNELS 3 Zrotation Yrotation Xrotation
								End Site
								{
									OFFSET 0.000000 0.000000 0.000000
								}
							}
						}
					}
				}
			}
		}
	}
}
MOTION
Frames: 11
Frame Time: 0.033333
0.247474 3.054227 1.014112 -3.463664 1.824291 93.075973 3.574544 3.729871 1.658461 -3.913752 3.872438 -1.964179 -4.977153 7.942671 -10.538015 0.000000 -0.000000 0.000000 -4.101151 -2.431944 -2.391851 0.073170 -3.346756 1.498642 8.367021 -3.092755 -7.592423 0.000000 -0.000000 0.000000 -0.246146 0.271867 5.353036 1.480738 -1.654422 -3.529492 0.401057 -0.806842 -0.596155 3.908074 4.981568 -10.278365 0.412496 -2.596073 8.249722 -27.659009 10.470461 2.194565 -56.299624 -2.180825 12.242663 6.784409 -35.287760 8.511107 8.897213 -24.830736 -21.608307 29.557321 -3.172809 -0.850859 58.726114 6.220338 16.509971 -12.557030 18.752710 -2.597157 0.039681 11.415693 -3.400274 
0.251671 3.051584 1.013817 -3.306401 1.751306 93.518635 3.329380 3.795700 1.379550 -4.167046 3.685718 -2.097611 -4.850038 7.731528 -10.573349 0.000000 -0.000000 0.000000 -4.333948 -2.504527 -2.862723 -0.134309 -3.006518 1.806085 8.394613 -3.177913 -7.737564 0.000000 -0.000000 0.000000 -0.027579 0.229301 5.405444 1.464221 -1.661649 -4.125316 0.538225 -0.859479 -0.618754 4.145162 4.951165 -11.196091 0.002399 -2.291132 8.288156 -27.580371 10.294359 2.635613 -56.653125 -2.073973 12.119119 6.872479 -34.905165 8.816367 9.190861 -24.708922 -21.816622 29.311399 -3.186741 -0.536707 58.801493 6.076115 16.296801 -13.102767 18.615010 -3.073861 -1.371297 11.274685 -4.401453 
0.258707 3.047283 1.013191 -2.891188 1.631306 93.903960 2.720579 3.946108 1.391118 -4.257596 3.042765 -2.371122 -4.906127 7.412418 -10.895369 0.000000 -0.000000 0.000000 -4.754007 -2.808853 -3.426890 -0.477582 -2.853341 2.671573 8.642102 -3.373461 -8.634692 0.000000 -0.000000 0.000000 0.267597 0.285780 5.430522 1.594530 -1.817669 -4.167846 0.682936 -1.144820 -0.716347 4.064864 5.314634 -12.130415 -0.093465 -1.375969 7.757277 -27.690924 9.714706 2.729147 -57.047439 -1.963000 12.213163 7.072272 -34.141018 9.043770 9.308663 -24.633193 -21.683704 28.997480 -3.057610 -0.658861 58.605042 5.800724 15.915603 -13.692781 18.778741 -4.163678 -1.168036 11.269304 -4.800850 
0.266479 3.043351 1.012562 -2.765857 1.480588 94.267273 1.989519 3.900876 1.226418 -4.377849 2.578974 -2.281772 -4.569596 7.311569 -11.739357 0.000000 -0.000000 0.000000 -5.139146 -2.309020 -4.892415 -1.087423 -2.776259 5.193513 8.396522 -3.548255 -9.912205 0.000000 -0.000000 0.000000 0.463525 -0.040718 5.911967 1.618965 -1.697394 -4.669272 0.749144 -1.197698 -0.781123 4.126305 5.850453 -12.277073 -0.276013 -0.957825 7.747559 -27.675067 9.523465 2.659242 -57.297823 -2.037501 12.188783 7.372123 -33.668828 9.132097 8.393957 -24.666082 -21.270076 29.087082 -3.081286 -0.573597 58.316101 6.014879 15.690510 -14.098068 18.837507 -4.437186 -0.509965 11.068951 -4.769576 
0.271660 3.038356 1.011760 -1.981424 1.482028 94.302766 1.740847 3.715944 1.497908 -4.438828 1.851495 -2.318199 -4.214848 7.026899 -12.209376 0.000000 -0.000000 0.000000 -5.182055 -2.576945 -5.506755 -1.512812 -2.426105 7.237339 7.953265 -3.993727 -10.961086 0.000000 -0.000000 0.000000 0.693193 -0.081978 5.540533 1.915242 -2.069102 -4.145791 0.680080 -1.497892 -0.684961 4.095062 5.635824 -12.131062 -0.549473 -0.788950 7.391872 -27.827171 9.181920 2.860579 -57.326402 -2.284343 12.314167 7.561925 -33.733658 9.111570 8.464867 -24.597199 -21.561665 28.873402 -3.057651 -0.584084 58.223998 5.909235 15.580015 -14.478522 19.186578 -4.710198 0.214747 11.173956 -5.128089 
0.278162 3.033993 1.010553 -1.690470 1.251621 94.144802 1.025496 3.403865 1.768025 -4.477163 1.336974 -1.920912 -3.358741 7.308799 -13.250929 0.000000 -0.000000 0.000000 -5.303036 -1.353084 -7.356487 -2.496232 -1.923499 11.672222 7.666534 -4.753916 -12.928057 0.000000 -0.000000 0.000000 0.412448 -0.608679 6.414740 1.981619 -1.783584 -4.353726 0.741845 -1.560579 -0.485154 4.242327 6.431521 -12.303770 -0.443277 -0.638120 7.832321 -27.615152 9.044534 2.542679 -57.351923 -2.644514 12.463296 7.477785 -34.134853 9.317917 8.133171 -24.482753 -21.751423 29.072214 -3.171130 -0.966444 58.016633 5.919500 15.805151 -14.736442 19.529464 -4.957295 0.521953 10.957562 -5.395161 
0.284510 3.028285 1.008729 -1.353939 0.855242 93.669257 0.178318 3.469503 2.728569 -4.585572 0.654305 -2.008321 -2.761416 7.406705 -13.883409 0.000000 -0.000000 0.000000 -5.290056 0.248415 -9.714435 -3.738099 -1.095500 17.899710 6.595804 -5.996325 -15.136828 0.000000 -0.000000 0.000000 -0.172472 -1.322796 7.336750 2.133185 -1.584992 -4.202350 0.875426 -1.735772 -0.363204 4.637128 6.497617 -12.303780 -0.865844 -0.868317 7.792924 -27.668022 8.537103 2.353150 -56.953514 -2.710338 12.521591 7.349315 -34.840975 9.094947 8.993263 -24.584333 -22.193518 29.060438 -2.856131 -1.066748 58.236235 5.881283 16.142872 -15.300449 19.571506 -5.448734 -0.608825 10.976311 -5.494910 
0.290013 3.021310 1.005881 -1.656567 0.267085 92.755766 -0.795329 3.707984 4.976431 -4.751791 -0.058841 -3.336111 -2.217135 7.904523 -14.197402 0.000000 -0.000000 0.000000 -5.241047 2.173149 -12.178696 -5.211751 0.275912 25.248439 5.176894 -7.530459 -16.071226 0.000000 -0.000000 0.000000 -1.137748 -2.166856 8.636184 2.153553 -1.312219 -3.658065 0.847074 -1.666477 -0.238859 4.799441 7.501638 -12.053739 -0.591644 -0.367770 7.806868 -27.504732 8.204029 1.668963 -56.106299 -2.554462 12.435721 6.756465 -35.918529 9.171872 9.139485 -24.619792 -22.747835 29.365578 -2.273345 -1.060296 58.463132 6.101072 16.584137 -15.703939 19.888899 -5.918169 0.333857 10.814307 -5.703027 
0.294813 3.014527 1.003339 -2.027917 -0.408720 91.938157 -1.896138 4.166154 7.351204 -4.669547 -0.617922 -5.070567 -1.836606 8.282704 -14.100305 0.000000 -0.000000 0.000000 -5.323797 4.404657 -15.057859 -6.719270 1.140660 33.161409 4.208443 -9.104826 -14.562665 0.000000 -0.000000 0.000000 -2.359265 -3.286435 10.059287 2.118352 -0.942784 -3.094971 1.052754 -1.904803 -0.212002 5.184116 7.755321 -12.320107 -0.975862 0.273366 7.690625 -27.856491 7.437875 1.747644 -55.053199 -2.206608 11.836774 7.226539 -36.978810 7.497832 9.101817 -24.998697 -22.625140 29.658730 -1.346041 -1.077955 58.808130 6.094365 17.300599 -16.231063 20.223140 -6.839119 1.300752 10.817835 -5.521384 
0.299862 3.003173 1.001501 -0.842335 -0.530978 91.349874 -2.338474 4.081604 9.248623 -4.204946 -1.792125 -5.830325 -0.846393 9.202067 -14.349747 0.000000 -0.000000 0.000000 -5.203338 6.456780 -18.781497 -6.554482 1.410970 42.391587 3.065708 -9.891551 -9.426756 0.000000 -0.000000 0.000000 -2.881123 -5.007785 11.064586 2.381426 -1.186120 -2.629072 0.900288 -2.485212 -0.018688 5.213367 8.309597 -11.748942 -0.581467 1.736669 7.625488 -28.227986 6.995048 1.819563 -54.117088 -2.477429 11.478525 7.507783 -37.087291 6.439589 9.412070 -24.838622 -22.310482 29.923377 -1.555673 -1.493522 59.338932 5.830779 18.035191 -16.284703 20.830320 -6.737584 1.280115 10.904386 -5.717955 
0.302653 2.994440 1.001818 0.523063 -0.215705 91.446689 -2.076391 3.857210 9.550151 -3.974156 -2.576816 -5.480871 0.397541 9.575719 -15.177412 0.000000 -0.000000 0.000000 -5.046145 6.863534 -22.556067 -5.342986 0.766588 48.302893 2.593027 -9.699872 -8.989511 0.000000 -0.000000 0.000000 -2.615005 -6.310564 11.717033 2.696994 -1.634478 -2.796655 0.547728 -3.059071 0.091023 5.275728 8.628598 -11.160123 -0.794074 2.210335 7.411838 -28.388224 6.915849 2.189566 -53.668734 -3.068105 11.306776 7.753467 -37.062271 5.916970 10.046834 -24.468051 -22.375726 30.043718 -2.104722 -1.666133 59.985984 5.400266 18.257679 -16.330364 21.449431 -6.805478 0.351407 10.836218 -6.208700 
